<svg width="22" height="20" viewBox="0 0 22 20" fill="none" xmlns="http://www.w3.org/2000/svg">
<path d="M0.751007 8C0.751007 3.58 4.33501 0 8.75601 0H13.122C17.612 0 21.251 3.64 21.251 8.13C21.251 11.09 19.644 13.81 17.055 15.24L9.00101 19.7V16.01H8.93401C4.44401 16.11 0.751007 12.5 0.751007 8ZM8.75601 2C5.43901 2 2.75101 4.69 2.75101 8C2.75101 11.37 5.52101 14.08 8.88901 14.01L9.24001 14H11.001V16.3L16.088 13.49C18.039 12.41 19.251 10.36 19.251 8.13C19.251 4.74 16.507 2 13.122 2H8.75601Z" fill="white"/>
</svg>
