<svg width="20" height="21" viewBox="0 0 20 21" fill="none" xmlns="http://www.w3.org/2000/svg">
<path d="M19.591 6.146L10.52 0.156996C10.204 -0.0530035 9.796 -0.0530035 9.48 0.156996L0.409 6.147C0.149 6.32 0 6.603 0 6.904V20.087C0 20.589 0.418 21 0.929 21H7.567C8.078 21 8.496 20.59 8.496 20.087V13.012H11.504V20.087C11.504 20.589 11.922 21 12.433 21H19.072C19.582 21 20 20.59 20 20.087V6.904C20 6.603 19.841 6.32 19.591 6.146ZM18 19L13.5 19.01L13.511 11.913C13.511 11.411 13.093 11 12.583 11H7.44C6.929 11 6.511 11.41 6.511 11.913L6.5 19H2V7.773L10.011 2.431L18 7.764V19Z" fill="white"/>
</svg>
