<svg width="20" height="19" viewBox="0 0 20 19" fill="none" xmlns="http://www.w3.org/2000/svg">
<path d="M14.697 2.5C13.475 2.44 12.018 3.01 10.807 4.66L10.002 5.75L9.196 4.66C7.984 3.01 6.526 2.44 5.304 2.5C4.061 2.57 2.955 3.28 2.394 4.41C1.842 5.53 1.761 7.19 2.873 9.23C3.947 11.2 6.13 13.5 10.002 15.84C13.872 13.5 16.054 11.2 17.128 9.23C18.239 7.19 18.158 5.53 17.605 4.41C17.044 3.28 15.939 2.57 14.697 2.5ZM18.884 10.19C17.533 12.67 14.883 15.31 10.505 17.86L10.002 18.16L9.498 17.86C5.119 15.31 2.469 12.67 1.116 10.19C-0.243996 7.69 -0.293996 5.33 0.602004 3.52C1.489 1.73 3.249 0.609997 5.203 0.509997C6.854 0.419997 8.571 1.07 10.001 2.52C11.43 1.07 13.147 0.419997 14.797 0.509997C16.751 0.609997 18.511 1.73 19.398 3.52C20.294 5.33 20.244 7.69 18.884 10.19Z" fill="white"/>
</svg>
