<svg width="22" height="22" viewBox="0 0 22 22" fill="none" xmlns="http://www.w3.org/2000/svg">
<path d="M9.54 0.75H12.46L14.03 3.11C14.14 3.28 14.35 3.36 14.56 3.32L17.09 2.73L19.26 4.9L18.68 7.44C18.63 7.64 18.72 7.85 18.89 7.97L21.25 9.54V12.46L18.89 14.03C18.72 14.15 18.63 14.36 18.68 14.56L19.26 17.1L17.09 19.27L14.56 18.68C14.35 18.64 14.14 18.72 14.03 18.89L12.46 21.25H9.54L7.96 18.89C7.85 18.72 7.64 18.64 7.44 18.68L4.9 19.27L2.73 17.1L3.31 14.56C3.36 14.36 3.28 14.15 3.1 14.03L0.75 12.46V9.54L3.1 7.97C3.28 7.85 3.36 7.64 3.31 7.44L2.73 4.9L4.9 2.73L7.44 3.32C7.64 3.36 7.85 3.28 7.96 3.11L9.54 0.75ZM10.61 2.75L9.63 4.22C9.05 5.08 8 5.5 6.99 5.27L5.53 4.93L4.93 5.53L5.26 6.99C5.5 8 5.08 9.06 4.21 9.63L2.75 10.61V11.39L4.21 12.37C5.08 12.94 5.5 14 5.26 15.01L4.93 16.47L5.53 17.07L6.99 16.73C8 16.5 9.05 16.92 9.63 17.78L10.61 19.25H11.39L12.36 17.78C12.94 16.92 13.99 16.5 15.01 16.73L16.46 17.07L17.07 16.47L16.73 15.01C16.5 14 16.91 12.94 17.78 12.37L19.25 11.39V10.61L17.78 9.63C16.91 9.06 16.5 8 16.73 6.99L17.07 5.53L16.46 4.93L15.01 5.27C13.99 5.5 12.94 5.08 12.36 4.22L11.39 2.75H10.61ZM11 9.5C10.17 9.5 9.5 10.17 9.5 11C9.5 11.83 10.17 12.5 11 12.5C11.82 12.5 12.5 11.83 12.5 11C12.5 10.17 11.82 9.5 11 9.5ZM7.5 11C7.5 9.07 9.06 7.5 11 7.5C12.93 7.5 14.5 9.07 14.5 11C14.5 12.93 12.93 14.5 11 14.5C9.06 14.5 7.5 12.93 7.5 11Z" fill="white"/>
</svg>
