<svg width="18" height="21" viewBox="0 0 18 21" fill="none" xmlns="http://www.w3.org/2000/svg">
<path d="M9 5C7.07 5 5.5 6.57 5.5 8.5C5.5 10.43 7.07 12 9 12C10.93 12 12.5 10.43 12.5 8.5C12.5 6.57 10.93 5 9 5ZM9 10C8.173 10 7.5 9.327 7.5 8.5C7.5 7.673 8.173 7 9 7C9.827 7 10.5 7.673 10.5 8.5C10.5 9.327 9.827 10 9 10ZM9 0C4.313 0 0.5 3.813 0.5 8.5C0.5 14.467 8.121 19.616 8.445 19.832L9 20.202L9.555 19.832C9.879 19.616 17.5 14.467 17.5 8.5C17.5 3.813 13.687 0 9 0ZM9 17.77C7.335 16.529 2.5 12.574 2.5 8.5C2.5 4.916 5.416 2 9 2C12.584 2 15.5 4.916 15.5 8.5C15.5 12.573 10.665 16.528 9 17.77Z" fill="white"/>
</svg>
