<svg width="20" height="18" viewBox="0 0 20 18" fill="none" xmlns="http://www.w3.org/2000/svg">
<path d="M-0.00199986 2.5C-0.00199986 1.119 1.117 0 2.498 0H17.498C18.879 0 19.998 1.119 19.998 2.5V15.5C19.998 16.881 18.879 18 17.498 18H2.498C1.117 18 -0.00199986 16.881 -0.00199986 15.5V2.5ZM2.498 2C2.222 2 1.998 2.224 1.998 2.5V5.264L9.998 8.902L17.998 5.266V2.5C17.998 2.224 17.774 2 17.498 2H2.498ZM17.998 7.463L9.998 11.099L1.998 7.461V15.5C1.998 15.776 2.222 16 2.498 16H17.498C17.774 16 17.998 15.776 17.998 15.5V7.463Z" fill="white"/>
</svg>
