<svg width="18" height="19" viewBox="0 0 18 19" fill="none" xmlns="http://www.w3.org/2000/svg">
<path d="M2.651 17H15.349C15.012 15.2 14.326 13.79 13.404 12.81C12.318 11.65 10.838 11 9 11C7.162 11 5.683 11.65 4.596 12.81C3.674 13.79 2.988 15.2 2.651 17ZM3.137 11.44C4.627 9.85 6.648 9 9 9C11.352 9 13.373 9.85 14.863 11.44C16.34 13.02 17.229 15.24 17.495 17.9L17.605 19H0.395L0.505001 17.9C0.771001 15.24 1.66 13.02 3.137 11.44ZM9 2C7.895 2 7 2.9 7 4C7 5.1 7.895 6 9 6C10.105 6 11 5.1 11 4C11 2.9 10.105 2 9 2ZM5 4C5 1.79 6.791 0 9 0C11.209 0 13 1.79 13 4C13 6.21 11.209 8 9 8C6.791 8 5 6.21 5 4Z" fill="white"/>
</svg>
